HIERARCHY
ROOT Hips
{
	OFFSET 0.000000 0.000000 0.000000 
	CHANNELS 6 Xposition Yposition Zposition Zrotation Yrotation Xrotation
	JOINT LeftUpLeg
	{
		OFFSET 1.363060 -1.794630 0.839290 
		CHANNELS 3 Zrotation Yrotation Xrotation
		JOINT LeftLeg
		{
			OFFSET 2.448110 -6.726130 0.000000 
			CHANNELS 3 Zrotation Yrotation Xrotation
			JOINT LeftFoot
			{
				OFFSET 2.562200 -7.039590 0.000000 
				CHANNELS 3 Zrotation Yrotation Xrotation
				JOINT LeftToeBase
				{
					OFFSET 0.157640 -0.433110 2.322550 
					CHANNELS 3 Zrotation Yrotation Xrotation
					End Site
					{
						OFFSET 0.000000 0.000000 0.000000 
					}
				}
			}
		}
	}
	JOINT RightUpLeg
	{
		OFFSET -1.305520 -1.794630 0.839290 
		CHANNELS 3 Zrotation Yrotation Xrotation
		JOINT RightLeg
		{
			OFFSET -2.542530 -6.985550 0.000000 
			CHANNELS 3 Zrotation Yrotation Xrotation
			JOINT RightFoot
			{
				OFFSET -2.568260 -7.056230 0.000000 
				CHANNELS 3 Zrotation Yrotation Xrotation
				JOINT RightToeBase
				{
					OFFSET -0.164730 -0.452590 2.363150 
					CHANNELS 3 Zrotation Yrotation Xrotation
					End Site
					{
						OFFSET 0.000000 0.000000 0.000000 
					}
				}
			}
		}
	}
	JOINT Spine
	{
		OFFSET 0.028270 2.035590 -0.193380 
		CHANNELS 3 Zrotation Yrotation Xrotation
		JOINT Spine1
		{
			OFFSET 0.056720 2.048850 -0.042750 
			CHANNELS 3 Zrotation Yrotation Xrotation
			JOINT Neck1
			{
				OFFSET -0.054170 1.746240 0.172020 
				CHANNELS 3 Zrotation Yrotation Xrotation
				JOINT Head
				{
					OFFSET 0.104070 1.761360 -0.123970 
					CHANNELS 3 Zrotation Yrotation Xrotation
					End Site
					{
						OFFSET 0.000000 0.000000 0.000000 
					}
				}
			}
			JOINT LeftArm
			{
				OFFSET 3.362410 1.200890 -0.311210 
				CHANNELS 3 Zrotation Yrotation Xrotation
				JOINT LeftForeArm
				{
					OFFSET 4.983000 -0.000000 -0.000000 
					CHANNELS 3 Zrotation Yrotation Xrotation
					JOINT LeftHand
					{
						OFFSET 3.483560 -0.000000 -0.000000 
						CHANNELS 3 Zrotation Yrotation Xrotation
						JOINT LeftHandIndex1
						{
							OFFSET 0.715260 -0.000000 -0.000000 
							CHANNELS 3 Zrotation Yrotation Xrotation
							End Site
							{
								OFFSET 0.000000 0.000000 0.000000 
							}
						}
					}
				}
			}
			JOINT RightArm
			{
				OFFSET -3.136600 1.374050 -0.404650 
				CHANNELS 3 Zrotation Yrotation Xrotation
				JOINT RightForeArm
				{
					OFFSET -5.241900 -0.000000 -0.000000 
					CHANNELS 3 Zrotation Yrotation Xrotation
					JOINT RightHand
					{
						OFFSET -3.444170 -0.000000 -0.000000 
						CHANNELS 3 Zrotation Yrotation Xrotation
						JOINT RightHandIndex1
						{
							OFFSET -0.622530 -0.000000 -0.000000 
							CHANNELS 3 Zrotation Yrotation Xrotation
							End Site
							{
								OFFSET 0.000000 0.000000 0.000000 
							}
						}
					}
				}
			}
		}
	}
}
MOTION
Frames: 8
Frame Time: 0.041667
-7.242452 28.270785 3.105680 179.135388 66.074362 104.405892 70.616271 52.008458 102.707230 -47.266043 -11.556357 5.165075 -143.207355 -26.263425 -113.828938 0.226900 -3.065800 -8.462100 109.388804 3.540891 -92.754644 -125.622369 13.942182 164.838619 -25.618095 -30.350598 62.181511 -1.927300 8.713000 -24.901500 -58.764607 -75.543703 165.714895 109.359964 -50.969467 -160.956451 53.647745 -89.181624 39.592464 4.289600 -1.909600 14.043800 -5.431106 -77.885903 90.568477 -160.085102 88.975980 -8.377445 9.642794 19.078114 -2.902525 -7.125000 0.000000 0.000000 72.668315 51.976277 148.569646 80.833150 -30.764537 -13.627386 -11.417246 47.134160 -13.496881 7.125000 0.000000 0.000000 
-6.685559 28.156047 3.146510 -153.359225 -73.447937 -73.919021 -75.720400 57.042917 -15.002217 -46.628788 54.310052 -155.957460 56.470471 -14.841810 -151.980454 0.396000 -4.040500 -11.190600 20.834960 42.018229 -168.393001 -47.585511 68.118626 156.926328 -157.693534 -78.058289 -104.772436 -1.673200 8.149400 -23.168800 53.806210 20.741401 -41.502781 -170.960991 -62.215031 -82.343779 152.593393 62.592890 19.044021 4.468300 -2.020500 14.214400 -25.782146 -70.819259 159.246602 -29.881744 20.682715 160.640812 12.078828 -6.728003 -21.402164 -7.125000 0.000000 0.000000 103.762130 74.071975 109.712996 109.249734 -36.495002 -22.983533 -26.799025 60.516822 -22.673013 7.125000 0.000000 0.000000 
-6.086802 27.922694 3.244710 -126.441783 83.288821 -48.000248 -105.892187 -56.039637 169.908901 22.700524 -83.972148 10.098511 -76.731718 -74.111667 -3.517165 0.562900 -4.805600 -13.354900 -53.440938 -12.885799 -46.892030 0.992665 14.089191 -149.593100 106.838804 19.254725 90.532221 -1.525000 7.797400 -22.100400 -138.646292 49.506871 128.272979 -53.443027 -5.576051 38.566591 176.917082 64.654171 -2.421212 4.270000 -2.179900 14.127100 23.848411 -56.552237 -13.566377 60.989876 35.370618 -5.131850 -46.247506 -7.755663 30.115766 -7.125000 0.000000 0.000000 18.014014 -75.639590 -21.184952 -44.945549 63.849828 -167.772903 -60.633188 25.135083 31.608228 7.125000 0.000000 0.000000 
-5.467889 27.694510 3.331280 -23.056836 29.394841 -57.421158 32.437037 4.319594 -15.293419 148.038116 -30.587661 146.289285 78.359541 18.211235 -176.624794 1.519900 -7.784800 -22.062400 134.055045 27.100896 177.387713 85.624250 -22.918795 163.494014 -84.801968 34.218452 94.011546 -1.660400 8.119700 -23.078200 0.467374 87.536561 26.700912 31.501072 22.253969 -18.200332 -27.202551 29.007788 -83.713188 4.190400 -2.377900 14.280600 -106.085133 88.606008 -25.859006 -64.685677 -6.173873 166.974078 -16.978082 4.800475 12.646534 -7.125000 0.000000 0.000000 67.342832 -68.566067 -29.178720 -102.274004 23.673312 -24.501131 12.119626 -83.251108 11.748497 7.125000 0.000000 0.000000 
-4.860604 27.450821 3.428187 133.394288 -6.628224 111.398544 -76.565312 -56.624751 12.725078 97.081357 -78.882614 71.638078 118.305931 -45.797680 -18.644439 2.409400 -9.671200 -27.918400 -124.847712 14.026993 86.984420 -37.127587 70.068216 73.408549 -47.865720 76.133136 80.052886 -2.046200 8.961600 -25.675400 173.092026 -24.983004 89.826976 -18.092763 -50.724226 40.982004 60.892330 77.668778 -83.836458 3.817200 -2.687000 14.892700 41.720865 -39.023626 4.833047 -141.499854 32.447374 159.637818 -118.123421 83.949527 174.371304 -7.125000 0.000000 0.000000 -75.305637 -9.111164 -49.133905 -28.523724 35.775024 152.414028 24.498016 -28.889290 -53.554007 7.125000 0.000000 0.000000 
-4.254611 27.160617 3.545509 139.511160 29.738660 53.252499 11.008496 39.823065 -79.233595 -72.143761 61.814605 86.548790 -19.724660 48.439011 2.170855 2.583800 -9.988700 -28.940200 -167.182920 21.768798 68.725550 113.496232 -80.541169 -147.743524 -46.823724 -9.195369 -55.971526 -2.441300 9.730400 -28.108000 -78.953868 23.832167 172.980693 87.182921 46.441614 -140.757456 -80.137049 -85.076040 -74.752357 3.863200 -2.808400 14.718300 -98.169973 57.543532 68.578614 -124.987951 -8.073114 -150.611577 90.489056 6.729976 24.345849 -7.125000 0.000000 0.000000 -108.907766 79.422288 61.028268 113.967433 7.917251 -16.553356 0.375457 26.319363 -27.130644 7.125000 0.000000 0.000000 
-3.656113 26.892119 3.640091 110.935633 -14.372380 -144.788502 16.908700 54.279884 8.929687 40.877974 -7.611246 133.580141 138.775842 -20.412587 37.246462 2.827600 -10.410700 -30.317100 110.622185 -19.090605 -99.553218 63.138067 -7.151209 -9.137631 -149.155042 34.893442 23.408955 -2.901900 10.534500 -30.725600 85.368563 30.541139 -153.211238 25.985638 -70.136200 -47.345874 57.033657 68.189520 -50.443737 4.048700 -2.827100 14.430900 71.863477 22.138458 115.224635 -9.750588 -31.102285 11.850936 -22.177405 -39.038546 18.640173 -7.125000 0.000000 0.000000 93.979683 3.524126 123.082623 -58.383708 7.953876 -42.703464 -36.691736 -6.600238 -21.455988 7.125000 0.000000 0.000000 
-3.065625 26.597780 3.751728 -69.894163 -88.058073 -171.241442 -44.778809 4.532472 129.461077 146.253077 36.636548 -166.789298 158.741606 58.028340 14.707853 3.012900 -10.715900 -31.327600 -36.694205 46.850356 -77.704899 123.358109 -58.109771 45.869780 23.399493 12.107031 35.362119 -2.132100 9.136000 -26.221800 -158.311958 -28.776073 103.487490 48.484065 71.963547 43.522576 -31.649526 -1.416368 -59.463962 3.931900 -2.974800 14.411500 -114.879100 -66.925351 108.492252 32.852978 -69.703068 -5.098833 12.634322 31.806241 38.589651 -7.125000 0.000000 0.000000 -84.459621 64.588376 -121.819302 -36.356072 85.336549 -8.224354 38.762811 -63.531935 -4.933706 7.125000 0.000000 0.000000 
